<?xml version="1.0" encoding="UTF-8" standalone="no"?>
<!DOCTYPE svg PUBLIC "-//W3C//DTD SVG 1.1//EN" "http://www.w3.org/Graphics/SVG/1.1/DTD/svg11.dtd">
<svg width="100%" height="100%" viewBox="0 0 201 98" version="1.1" xmlns="http://www.w3.org/2000/svg" xmlns:xlink="http://www.w3.org/1999/xlink" xml:space="preserve" xmlns:serif="http://www.serif.com/" style="fill-rule:evenodd;clip-rule:evenodd;stroke-linejoin:round;stroke-miterlimit:2;">
    <g>
        <path d="M82.6,13.1C81.1,11.8 78.8,11 76.4,11C70.8,11 66.2,15.4 66.2,21.2C66.2,26.8 70.8,31.3 76.4,31.3C79.6,31.3 82.3,30 84.2,27.8L84.2,22.2C83.2,23.9 81.2,26.2 79.4,26.9C78.5,27.3 77.5,27.5 76.5,27.5C73,27.5 70.1,24.8 70.1,21.2C70.1,17.9 72.8,14.8 76.5,14.8C78.3,14.8 79.8,15.5 81,16.7C82.2,17.9 84.1,20.3 85,21.3C87.3,23.8 90.6,25.3 94.2,25.3C101.1,25.3 106.8,19.7 106.8,12.8C106.6,5.8 101,-0 94,-0C90,-0 86.4,2.1 84.1,5.1L84.1,12.6C85.9,7.8 89.1,4 94,4C98.8,4 102.7,7.9 102.6,12.7C102.6,17.5 98.7,21.3 94,21.3C91.9,21.3 89.9,20.5 88.4,19.2C86.6,17.8 84.5,14.7 82.6,13.1" style="fill:white;fill-rule:nonzero;"/>
        <path d="M0,34.1L27.8,34.1L27.8,41.8C27.8,41.8 26.4,38.7 23.4,38.7L10.5,38.7L10.5,52.1L24.5,52.1L24.5,59.2C24.5,59.2 24.1,56.9 20.7,56.9L10.5,56.9L10.5,75.2C10.5,77.9 13.4,79.5 13.4,79.5L0.2,79.5C0.2,79.5 3,78.1 3,75.2L3,38.8C3,35.8 0,34.1 0,34.1Z" style="fill:white;fill-rule:nonzero;"/>
        <path d="M69.9,34.1L84.1,34.1C84.1,34.1 80.9,35.6 80.9,38.1L80.9,80.7C80.9,95.1 66.5,97.5 65.7,97.4C66.9,96.6 72.9,91.5 73,80.7L73,38.1C73,35.7 69.9,34.1 69.9,34.1Z" style="fill:white;fill-rule:nonzero;"/>
        <path d="M86.1,34.1L100.3,34.1C100.3,34.1 97.1,35.6 97.1,38.1L97.1,75.2C97.1,77.9 100.3,79.5 100.3,79.5L86.1,79.5C86.1,79.5 89.3,77.9 89.3,75.2L89.3,38.1C89.2,35.6 86.1,34.1 86.1,34.1Z" style="fill:white;fill-rule:nonzero;"/>
        <path d="M103.1,34.1L134.3,34.1L131.6,42.4C131.6,42.4 130.8,38.9 127.8,38.9L121.3,38.9L121.3,75.2C121.3,77.5 124.4,79.5 124.4,79.5L110.5,79.5C110.5,79.5 113.5,77.7 113.5,75.2L113.5,38.9L105.7,38.9C103.5,38.9 100.3,43.1 100.3,43.1L103.1,34.1Z" style="fill:white;fill-rule:nonzero;"/>
        <path d="M186.5,34.1L200.2,34.1C200.2,34.1 197.3,35.6 197.3,38.1L197.3,65.6C197.3,76.8 188,80.2 181.6,80.2C175.2,80.2 165.2,76.7 165.2,65.6L165.2,38.1C165.2,35.6 162.2,34.1 162.2,34.1L176.3,34.1C176.3,34.1 173.2,35.6 173.2,38.1L173.2,65.6C173.2,71.5 177.1,75.3 181.6,75.3C186.2,75.3 189.6,71.3 189.6,65.6L189.6,38.1C189.6,35.6 186.5,34.1 186.5,34.1Z" style="fill:white;fill-rule:nonzero;"/>
        <path d="M53.5,34.1L67.4,34.1C67.4,34.1 64.4,35.7 64.4,38.2L64.4,65.6C64.4,76.8 54.7,80.4 48.2,80.4C41.8,80.4 31.8,76.8 31.8,65.6L31.8,38.2C31.8,35.7 29,34.1 29,34.1L43.1,34.1C43.1,34.1 39.8,35.7 39.8,38.2L39.8,65.6C39.8,71.4 43.7,75.4 48.2,75.4C52.8,75.4 56.4,71.3 56.4,65.6L56.4,38.2C56.5,35.7 53.5,34.1 53.5,34.1Z" style="fill:white;fill-rule:nonzero;"/>
        <path d="M158,41.4C158,41.4 156,37.9 150.3,37.9C144.6,37.9 141.5,40.9 141.5,44.8C141.5,49.2 144.8,50.9 149.9,53.3C154.8,55.6 162.1,58.9 162.1,67C162.1,74.3 155.6,80.4 144,80.4C140.4,80.4 135.5,79.2 135.5,79.2L132.8,70.5C135.3,72.9 139.6,75.4 144.1,75.4C148.7,75.4 154.3,72.5 154.3,67.9C154.3,59 133.6,60.5 133.6,45.6C133.6,40.5 137.2,33.1 149.5,33.1C153.5,33.1 158,34.3 158,34.3L158,41.4Z" style="fill:white;fill-rule:nonzero;"/>
    </g>
</svg>
