<?xml version="1.0" encoding="UTF-8" standalone="no"?>
<!DOCTYPE svg PUBLIC "-//W3C//DTD SVG 1.1//EN" "http://www.w3.org/Graphics/SVG/1.1/DTD/svg11.dtd">
<svg width="100%" height="100%" viewBox="0 0 3460 1525" version="1.1" xmlns="http://www.w3.org/2000/svg" xmlns:xlink="http://www.w3.org/1999/xlink" xml:space="preserve" xmlns:serif="http://www.serif.com/" style="fill-rule:evenodd;clip-rule:evenodd;stroke-linejoin:round;stroke-miterlimit:2;">
    <g transform="matrix(1,0,0,1,-16.632393,-383.279248)" fill="currentColor">
        <g transform="matrix(2.727164,0,0,2.727164,-5496.689815,-1439.229181)">
            <g transform="matrix(0.958445,0,0,0.958445,1352.031521,-67.573632)">
                <path d="M873.43,1192.533C859.697,1175.77 842.732,1167.389 822.536,1167.389C813.649,1167.389 805.419,1169.005 797.846,1172.236C790.272,1175.467 783.759,1179.86 778.306,1185.414C772.853,1190.968 768.562,1197.582 765.431,1205.257C762.301,1212.931 760.736,1221.212 760.736,1230.098C760.736,1239.186 762.301,1247.568 765.431,1255.242C768.562,1262.917 772.904,1269.581 778.458,1275.236C784.012,1280.891 790.525,1285.334 797.997,1288.566C805.47,1291.797 813.548,1293.413 822.233,1293.413C841.217,1293.413 858.283,1285.334 873.43,1269.177L873.43,1339.46L867.371,1341.581C858.283,1344.812 849.8,1347.185 841.924,1348.7C834.047,1350.214 826.272,1350.972 818.597,1350.972C802.844,1350.972 787.748,1347.993 773.308,1342.035C758.867,1336.077 746.144,1327.696 735.137,1316.891C724.13,1306.086 715.294,1293.261 708.629,1278.417C701.965,1263.573 698.632,1247.366 698.632,1229.795C698.632,1212.224 701.914,1196.118 708.478,1181.476C715.042,1166.833 723.827,1154.211 734.834,1143.608C745.841,1133.005 758.615,1124.725 773.156,1118.767C787.697,1112.809 802.945,1109.83 818.9,1109.83C827.989,1109.83 836.925,1110.789 845.711,1112.708C854.496,1114.626 863.736,1117.605 873.43,1121.645L873.43,1192.533Z" style="fill-rule:nonzero;"/>
                <path d="M905.845,1093.168L960.677,1093.168L960.677,1208.892C968.15,1199.804 975.723,1193.694 983.398,1190.564C991.072,1187.434 1000.06,1185.868 1010.36,1185.868C1029.95,1185.868 1044.744,1191.271 1054.741,1202.076C1064.738,1212.881 1069.736,1227.472 1069.736,1245.851L1069.736,1344.61L1014.904,1344.61L1014.904,1266.148C1014.904,1258.272 1014.298,1251.91 1013.086,1247.063C1011.874,1242.216 1009.855,1238.479 1007.027,1235.854C1002.18,1231.613 996.323,1229.492 989.457,1229.492C980.167,1229.492 973.047,1232.269 968.099,1237.823C963.151,1243.377 960.677,1251.304 960.677,1261.604L960.677,1344.61L905.845,1344.61L905.845,1093.168Z" style="fill-rule:nonzero;"/>
                <path d="M1220.602,1244.336C1218.784,1236.662 1215.048,1230.502 1209.393,1225.857C1203.738,1221.212 1196.871,1218.889 1188.793,1218.889C1180.31,1218.889 1173.393,1221.111 1168.041,1225.554C1162.689,1229.997 1159.306,1236.258 1157.893,1244.336L1220.602,1244.336ZM1156.378,1276.145C1156.378,1299.775 1167.486,1311.589 1189.701,1311.589C1201.617,1311.589 1210.604,1306.742 1216.663,1297.048L1269.678,1297.048C1258.974,1332.593 1232.214,1350.366 1189.399,1350.366C1176.271,1350.366 1164.254,1348.397 1153.348,1344.459C1142.443,1340.52 1133.102,1334.916 1125.326,1327.645C1117.551,1320.375 1111.542,1311.69 1107.301,1301.592C1103.06,1291.494 1100.939,1280.184 1100.939,1267.663C1100.939,1254.737 1102.959,1243.074 1106.998,1232.673C1111.038,1222.272 1116.793,1213.436 1124.266,1206.165C1131.739,1198.895 1140.776,1193.29 1151.379,1189.352C1161.982,1185.414 1173.948,1183.445 1187.278,1183.445C1200.405,1183.445 1212.22,1185.414 1222.722,1189.352C1233.224,1193.29 1242.11,1198.996 1249.381,1206.468C1256.652,1213.941 1262.206,1223.08 1266.043,1233.885C1269.88,1244.69 1271.799,1256.858 1271.799,1270.389L1271.799,1276.145L1156.378,1276.145Z" style="fill-rule:nonzero;"/>
                <path d="M1420.24,1239.489C1410.748,1233.026 1401.155,1229.795 1391.461,1229.795C1386.21,1229.795 1381.312,1230.704 1376.768,1232.521C1372.224,1234.339 1368.235,1236.914 1364.802,1240.246C1361.369,1243.579 1358.693,1247.517 1356.774,1252.061C1354.855,1256.605 1353.896,1261.705 1353.896,1267.36C1353.896,1272.813 1354.855,1277.811 1356.774,1282.355C1358.693,1286.9 1361.318,1290.838 1364.651,1294.17C1367.983,1297.503 1371.972,1300.078 1376.617,1301.895C1381.262,1303.713 1386.21,1304.622 1391.461,1304.622C1401.761,1304.622 1411.354,1301.087 1420.24,1294.019L1420.24,1340.672C1406.709,1346.529 1393.884,1349.457 1381.767,1349.457C1370.457,1349.457 1359.702,1347.538 1349.503,1343.701C1339.304,1339.864 1330.317,1334.36 1322.542,1327.191C1314.766,1320.021 1308.556,1311.438 1303.911,1301.441C1299.266,1291.444 1296.943,1280.285 1296.943,1267.966C1296.943,1255.646 1299.165,1244.387 1303.608,1234.188C1308.051,1223.989 1314.11,1215.203 1321.784,1207.832C1329.459,1200.46 1338.597,1194.704 1349.2,1190.564C1359.803,1186.424 1371.164,1184.354 1383.281,1184.354C1396.611,1184.354 1408.931,1187.181 1420.24,1192.836L1420.24,1239.489Z" style="fill-rule:nonzero;"/>
                <path d="M1513.849,1093.168L1513.849,1245.245L1571.408,1189.201L1646.538,1189.201L1568.682,1260.998L1651.082,1344.61L1574.135,1344.61L1513.849,1281.295L1513.849,1344.61L1459.017,1344.61L1459.017,1093.168L1513.849,1093.168Z" style="fill-rule:nonzero;"/>
                <rect x="1645.326" y="1240.701" width="86.944" height="45.744" style="fill-rule:nonzero;"/>
                <rect x="1756.203" y="1116.192" width="59.377" height="228.418" style="fill-rule:nonzero;"/>
                <path d="M1858.295,1189.201L1913.127,1189.201L1913.127,1208.892C1920.6,1199.804 1928.173,1193.694 1935.848,1190.564C1943.522,1187.434 1952.51,1185.868 1962.81,1185.868C1973.716,1185.868 1983.056,1187.636 1990.832,1191.17C1998.607,1194.704 2005.221,1199.703 2010.674,1206.165C2015.118,1211.416 2018.147,1217.273 2019.763,1223.736C2021.378,1230.199 2022.186,1237.57 2022.186,1245.851L2022.186,1344.61L1967.354,1344.61L1967.354,1266.148C1967.354,1258.473 1966.798,1252.263 1965.688,1247.517C1964.577,1242.771 1962.608,1238.984 1959.78,1236.157C1957.357,1233.733 1954.63,1232.017 1951.601,1231.007C1948.571,1229.997 1945.34,1229.492 1941.907,1229.492C1932.616,1229.492 1925.497,1232.269 1920.549,1237.823C1915.601,1243.377 1913.127,1251.304 1913.127,1261.604L1913.127,1344.61L1858.295,1344.61L1858.295,1189.201Z" style="fill-rule:nonzero;"/>
            </g>
            <g transform="matrix(1,0,0,1,2000.627621,922.11215)">
                <path d="M21.005,-144.075L54.287,-144.075L54.287,-130.762C60.697,-137.468 66.17,-142.004 70.706,-144.371C75.538,-146.836 81.603,-148.069 88.9,-148.069C105.172,-148.069 118.041,-140.969 127.508,-126.768C137.961,-140.969 152.112,-148.069 169.961,-148.069C202.405,-148.069 218.627,-128.395 218.627,-89.048L218.627,0L185.197,0L185.197,-80.025C185.197,-93.831 183.521,-103.594 180.168,-109.314C176.716,-115.132 171.046,-118.041 163.157,-118.041C153.986,-118.041 147.305,-114.589 143.113,-107.686C138.922,-100.783 136.827,-89.689 136.827,-74.404L136.827,0L103.397,0L103.397,-79.581C103.397,-105.221 96.001,-118.041 81.209,-118.041C71.84,-118.041 65.011,-114.54 60.722,-107.539C56.432,-100.537 54.287,-89.492 54.287,-74.404L54.287,0L21.005,0L21.005,-144.075Z" style="fill-rule:nonzero;"/>
                <path d="M293.919,-144.075L293.919,0L260.637,0L260.637,-144.075L293.919,-144.075ZM255.607,-203.983C255.607,-209.801 257.728,-214.83 261.968,-219.071C266.208,-223.311 271.287,-225.431 277.204,-225.431C283.219,-225.431 288.347,-223.311 292.588,-219.071C296.828,-214.929 298.948,-209.85 298.948,-203.835C298.948,-197.82 296.828,-192.692 292.588,-188.451C288.446,-184.211 283.367,-182.091 277.352,-182.091C271.336,-182.091 266.208,-184.211 261.968,-188.451C257.728,-192.692 255.607,-197.869 255.607,-203.983Z" style="fill-rule:nonzero;"/>
                <path d="M336.076,-144.075L369.506,-144.075L369.506,-130.762C381.143,-142.3 394.259,-148.069 408.853,-148.069C425.618,-148.069 438.684,-142.793 448.052,-132.241C456.139,-123.267 460.182,-108.623 460.182,-88.309L460.182,0L426.752,0L426.752,-80.469C426.752,-94.669 424.78,-104.481 420.835,-109.905C416.989,-115.428 409.988,-118.189 399.83,-118.189C388.786,-118.189 380.946,-114.54 376.311,-107.243C371.775,-100.044 369.506,-87.471 369.506,-69.523L369.506,0L336.076,0L336.076,-144.075Z" style="fill-rule:nonzero;"/>
                <path d="M608.399,-249.838L641.829,-249.838L641.829,0L608.399,0L608.399,-15.088C595.283,-2.268 580.442,4.142 563.875,4.142C544.152,4.142 527.782,-3.057 514.765,-17.455C501.846,-32.148 495.387,-50.49 495.387,-72.481C495.387,-93.979 501.846,-111.927 514.765,-126.324C527.585,-140.821 543.708,-148.069 563.135,-148.069C579.998,-148.069 595.086,-141.166 608.399,-127.36L608.399,-249.838ZM529.409,-72.481C529.409,-58.675 533.107,-47.433 540.503,-38.755C548.096,-29.979 557.662,-25.59 569.2,-25.59C581.526,-25.59 591.486,-29.831 599.08,-38.312C606.673,-47.088 610.47,-58.232 610.47,-71.742C610.47,-85.252 606.673,-96.395 599.08,-105.172C591.486,-113.751 581.625,-118.041 569.496,-118.041C558.056,-118.041 548.491,-113.702 540.799,-105.024C533.206,-96.247 529.409,-85.4 529.409,-72.481Z" style="fill-rule:nonzero;"/>
                <path d="M718.304,-113.012L718.304,0L684.874,0L684.874,-113.012L673.04,-113.012L673.04,-144.075L684.874,-144.075L684.874,-199.693C684.874,-217.838 688.03,-230.658 694.341,-238.153C703.019,-248.606 715.641,-253.832 732.209,-253.832C738.125,-253.832 745.571,-252.107 754.545,-248.655L754.545,-214.633L751.142,-216.408C743.944,-220.057 738.027,-221.881 733.392,-221.881C727.475,-221.881 723.481,-219.761 721.41,-215.521C719.339,-211.379 718.304,-203.391 718.304,-191.558L718.304,-144.075L754.545,-144.075L754.545,-113.012L718.304,-113.012Z" style="fill-rule:nonzero;"/>
                <path d="M807.057,-144.075L807.057,-61.387C807.057,-37.523 816.474,-25.59 835.309,-25.59C854.145,-25.59 863.562,-37.523 863.562,-61.387L863.562,-144.075L896.845,-144.075L896.845,-60.648C896.845,-49.11 895.415,-39.15 892.555,-30.768C889.794,-23.273 885.011,-16.518 878.207,-10.502C866.965,-0.74 852.666,4.142 835.309,4.142C818.052,4.142 803.802,-0.74 792.56,-10.502C785.657,-16.518 780.776,-23.273 777.916,-30.768C775.155,-37.473 773.774,-47.433 773.774,-60.648L773.774,-144.075L807.057,-144.075Z" style="fill-rule:nonzero;"/>
                <rect x="938.854" y="-249.838" width="33.282" height="249.838" style="fill-rule:nonzero;"/>
            </g>
        </g>
    </g>
</svg>
