<?xml version="1.0" encoding="UTF-8" standalone="no"?>
<!DOCTYPE svg PUBLIC "-//W3C//DTD SVG 1.1//EN" "http://www.w3.org/Graphics/SVG/1.1/DTD/svg11.dtd">
<svg width="100%" height="100%" viewBox="0 0 170 94" version="1.1" xmlns="http://www.w3.org/2000/svg" xmlns:xlink="http://www.w3.org/1999/xlink" xml:space="preserve" xmlns:serif="http://www.serif.com/" style="fill-rule:evenodd;clip-rule:evenodd;stroke-linejoin:round;stroke-miterlimit:2;">
    <g transform="matrix(1.029573,0,0,1.029573,0.060241,0)">
        <g>
            <path d="M73.7,51.8C72.4,52.9 70.6,53.5 68.4,53.5C66.2,53.5 64.3,52.9 63,51.8C61.7,50.7 61.1,49 61.1,46.6L61.1,36L64.9,36L64.9,48C64.9,48.4 65.1,48.8 65.4,49.2C65.7,49.5 66,49.8 66.5,50C67,50.2 67.6,50.3 68.3,50.3C69.6,50.3 70.6,50 71.1,49.4C71.6,48.8 71.9,47.9 71.9,46.6L71.9,36L75.6,36L75.6,46.6C75.6,48.9 74.9,50.7 73.6,51.8L73.7,51.8Z" style="fill:white;fill-rule:nonzero;"/>
            <rect x="77.3" y="36" width="3.4" height="17" style="fill:white;fill-rule:nonzero;"/>
            <path d="M85.6,50C85.6,50.3 85.9,50.5 86.2,50.6C86.4,50.8 86.7,50.9 87,51L88.8,51C89.1,51 89.3,51 89.5,50.7C89.7,50.7 89.9,50.4 90,50.2C90.1,50 90.2,49.8 90.2,49.4C90.2,49 89.9,48.5 89.2,48.3C88.5,48 87.6,47.8 86.4,47.5C85.9,47.5 85.4,47.3 85,47.1C84.5,47.1 84.1,46.8 83.7,46.5C83.3,46.3 83,45.9 82.8,45.6C82.6,45.2 82.5,44.8 82.5,44.2C82.5,43.6 82.7,42.8 83,42.2C83.3,41.7 83.7,41.3 84.2,41C84.7,40.7 85.3,40.5 85.9,40.4C86.5,40.3 87.2,40.2 87.9,40.2C88.6,40.2 89.2,40.2 89.8,40.4C90.4,40.4 91,40.7 91.5,41C92,41.3 92.4,41.7 92.7,42.2C93,42.7 93.2,43.3 93.3,44.1L90,44.1C90,43.4 89.7,43 89.3,42.8C88.9,42.6 88.3,42.5 87.7,42.5L87.1,42.5C86.9,42.5 86.7,42.5 86.5,42.7C86.3,42.7 86.2,42.9 86,43C86,43.2 85.8,43.4 85.8,43.6C85.8,43.9 85.8,44.1 86.1,44.3C86.3,44.5 86.6,44.6 87,44.8C87.4,44.8 87.8,45 88.2,45.1C88.7,45.1 89.1,45.3 89.6,45.4C90.1,45.5 90.6,45.6 91,45.8C91.5,46 91.9,46.2 92.3,46.4C92.7,46.7 93,47 93.2,47.4C93.4,47.8 93.5,48.3 93.5,48.8C93.5,49.6 93.3,50.3 93,50.8C92.7,51.4 92.2,51.8 91.7,52.1C91.2,52.4 90.6,52.7 89.9,52.8C89.2,52.8 88.5,53 87.8,53C87.1,53 86.4,53 85.7,52.8C85,52.8 84.4,52.4 83.9,52.1C83.4,51.8 82.9,51.3 82.6,50.8C82.3,50.3 82.1,49.6 82,48.7L85.2,48.7C85.2,49.4 85.4,49.8 85.6,50Z" style="fill:white;fill-rule:nonzero;"/>
            <path d="M94.7,37L98,37L98,40.7L100.5,40.7L100.5,43L98,43L98,49.1C98,49.7 98,50.1 98.3,50.2C98.5,50.4 98.9,50.5 99.4,50.5L100.4,50.5L100.4,53.1L96.9,53.1C96.4,53.1 96,52.9 95.7,52.7C95.3,52.5 95.1,52.2 94.9,51.8C94.7,51.4 94.6,50.9 94.6,50.3L94.6,37.1L94.7,37Z" style="fill:white;fill-rule:nonzero;"/>
            <path d="M105,50.1C105.5,50.6 106.2,50.8 107.2,50.8C108.2,50.8 108.5,50.6 109,50.3C109.5,50 109.8,49.6 109.9,49.2L112.9,49.2C112.4,50.7 111.7,51.7 110.7,52.4C109.7,53 108.5,53.4 107.1,53.4C105.7,53.4 105.3,53.2 104.5,52.9C103.7,52.6 103.1,52.1 102.5,51.6C102,51 101.5,50.3 101.2,49.5C100.9,48.7 100.8,47.8 100.8,46.9C100.8,46 101,45.1 101.3,44.3C101.6,43.5 102,42.8 102.6,42.2C103.2,41.6 103.8,41.2 104.6,40.8C105.4,40.5 106.2,40.3 107.2,40.3C108.2,40.3 109.2,40.5 109.9,40.9C110.7,41.3 111.3,41.8 111.8,42.5C112.3,43.2 112.7,44 112.9,44.8C113.1,45.7 113.2,46.6 113.1,47.5L104.2,47.5C104.2,48.8 104.5,49.6 105,50.1ZM108.8,43.6C108.4,43.2 107.8,42.9 107,42.9C106.2,42.9 106,42.9 105.7,43.2C105.3,43.4 105.1,43.6 104.8,43.9C104.6,44.2 104.4,44.5 104.3,44.8C104.3,45.1 104.3,45.4 104.1,45.6L109.6,45.6C109.6,44.7 109.2,44.1 108.8,43.6Z" style="fill:white;fill-rule:nonzero;"/>
            <path d="M117.4,40.7L117.4,43C117.6,42.6 117.8,42.3 118,41.9C118.3,41.6 118.6,41.3 118.9,41.1C119.3,40.9 119.6,40.7 120,40.6C120.4,40.5 120.8,40.4 121.2,40.4L121.9,40.4L121.9,43.6L120.7,43.6C120.1,43.6 119.6,43.6 119.1,43.9C118.7,44.1 118.3,44.4 118.1,44.7C117.8,45.1 117.7,45.5 117.5,46C117.5,46.5 117.3,47 117.3,47.6L117.3,53.2L113.9,53.2L113.9,40.7L117.4,40.7Z" style="fill:white;fill-rule:nonzero;"/>
        </g>
        <g>
            <path d="M73.7,71C72.4,72.1 70.6,72.7 68.4,72.7C66.2,72.7 64.3,72.1 63,71C61.7,69.9 61.1,68.2 61.1,65.8L61.1,55.3L64.9,55.3L64.9,67.3C64.9,67.7 65.1,68.1 65.4,68.5C65.7,68.8 66,69.1 66.5,69.3C67,69.5 67.6,69.6 68.3,69.6C69.6,69.6 70.6,69.3 71.1,68.7C71.6,68.1 71.9,67.2 71.9,65.9L71.9,55.3L75.6,55.3L75.6,65.9C75.6,68.2 74.9,69.9 73.6,71L73.7,71Z" style="fill:white;fill-rule:nonzero;"/>
            <path d="M80.5,60L80.5,61.7C80.9,61 81.5,60.5 82.2,60.1C82.9,59.8 83.6,59.6 84.3,59.6C85,59.6 86,59.6 86.5,60C87.1,60.2 87.5,60.6 87.9,61C88.2,61.4 88.5,62 88.6,62.6C88.7,63.2 88.8,63.9 88.8,64.7L88.8,72.3L85.4,72.3L85.4,65.3C85.4,64.3 85.2,63.5 84.9,63C84.6,62.5 84,62.2 83.2,62.2C82.4,62.2 81.6,62.5 81.2,63C80.8,63.5 80.6,64.4 80.6,65.7L80.6,72.2L77.2,72.2L77.2,60L80.5,60Z" style="fill:white;fill-rule:nonzero;"/>
            <path d="M90.5,58.1L90.5,55.3L93.9,55.3L93.9,58.1L90.5,58.1ZM93.9,60L93.9,72.3L90.5,72.3L90.5,60L93.9,60Z" style="fill:white;fill-rule:nonzero;"/>
            <path d="M98.9,72.3L94.7,60L98.3,60L100.9,68.4L103.5,60L106.9,60L102.7,72.3L98.9,72.3Z" style="fill:white;fill-rule:nonzero;"/>
            <path d="M110.5,69.4C111,69.9 111.7,70.1 112.7,70.1C113.7,70.1 114,69.9 114.5,69.6C115,69.3 115.3,68.9 115.4,68.5L118.4,68.5C117.9,70 117.2,71 116.2,71.7C115.2,72.3 114,72.7 112.6,72.7C111.2,72.7 110.8,72.5 110,72.2C109.2,71.9 108.6,71.4 108,70.9C107.5,70.3 107,69.6 106.7,68.9C106.4,68.1 106.3,67.2 106.3,66.3C106.3,65.4 106.3,64.5 106.8,63.7C107.1,62.9 107.5,62.2 108.1,61.6C108.7,61 109.3,60.6 110.1,60.2C110.9,59.9 111.7,59.7 112.7,59.7C113.7,59.7 114.7,59.9 115.4,60.3C116.2,60.7 116.8,61.2 117.3,61.9C117.8,62.6 118.2,63.4 118.4,64.2C118.6,65.1 118.7,66 118.6,66.9L109.7,66.9C109.7,68.1 110,68.9 110.5,69.4ZM114.3,62.9C113.9,62.5 113.3,62.2 112.4,62.2C111.5,62.2 111.4,62.2 111.1,62.5C110.7,62.7 110.5,62.9 110.2,63.2C110,63.5 109.8,63.8 109.7,64.1C109.7,64.4 109.7,64.7 109.5,64.9L115,64.9C115,64 114.7,63.3 114.3,62.9Z" style="fill:white;fill-rule:nonzero;"/>
            <path d="M122.6,60L122.6,62.3C122.8,61.9 123,61.6 123.2,61.2C123.5,60.9 123.8,60.6 124.1,60.4C124.5,60.2 124.8,60 125.2,59.9C125.6,59.8 126,59.7 126.4,59.7L127.1,59.7L127.1,62.9L125.9,62.9C125.3,62.9 124.8,62.9 124.3,63.2C123.9,63.4 123.5,63.7 123.3,64C123,64.4 122.8,64.8 122.7,65.3C122.6,65.8 122.5,66.3 122.5,66.9L122.5,72.5L119.1,72.5L119.1,60L122.6,60Z" style="fill:white;fill-rule:nonzero;"/>
            <path d="M131.3,69.3C131.4,69.6 131.6,69.8 131.9,69.9C132.1,70.1 132.4,70.2 132.7,70.3C133,70.4 133.3,70.3 133.7,70.3L134.5,70.3C134.8,70.3 135,70.3 135.2,70C135.4,70 135.6,69.7 135.7,69.5C135.8,69.3 135.9,69.1 135.9,68.7C135.9,68.3 135.6,67.8 134.9,67.6C134.2,67.3 133.3,67.1 132.1,66.8C131.6,66.8 131.1,66.6 130.7,66.4C130.2,66.4 129.8,66.1 129.4,65.8C129,65.6 128.7,65.2 128.5,64.9C128.3,64.5 128.2,64.1 128.2,63.5C128.2,62.9 128.4,62.1 128.7,61.5C129,61 129.4,60.6 129.9,60.3C130.4,60 131,59.8 131.6,59.7C132.2,59.7 132.9,59.5 133.6,59.5C134.3,59.5 134.9,59.5 135.5,59.7C136.1,59.7 136.7,60 137.2,60.3C137.7,60.6 138.1,61 138.4,61.5C138.7,62 138.9,62.6 139,63.4L135.8,63.4C135.8,62.7 135.5,62.3 135.1,62.1C134.7,61.9 134.1,61.8 133.5,61.8L132.9,61.8C132.7,61.8 132.5,61.8 132.3,62C132.1,62 132,62.2 131.8,62.3C131.7,62.5 131.6,62.7 131.6,62.9C131.6,63.2 131.7,63.5 131.9,63.6C132.1,63.8 132.4,63.9 132.8,64.1C133.2,64.1 133.6,64.3 134,64.4C134.5,64.4 134.9,64.6 135.4,64.7C135.9,64.7 136.4,64.9 136.8,65.1C137.3,65.3 137.7,65.5 138.1,65.7C138.5,66 138.8,66.3 139,66.7C139.2,67.1 139.3,67.6 139.3,68.1C139.3,68.9 139.1,69.6 138.8,70.1C138.5,70.7 138,71.1 137.5,71.4C137,71.7 136.4,72 135.7,72.1C135,72.2 134.3,72.3 133.6,72.3C132.9,72.3 132.2,72.3 131.5,72.1C130.8,72.1 130.2,71.7 129.7,71.4C129.2,71.1 128.7,70.6 128.4,70.1C128.1,69.6 127.9,68.9 127.8,68L131,68C131.1,68.7 131.2,69 131.3,69.3Z" style="fill:white;fill-rule:nonzero;"/>
            <path d="M140.4,58.1L140.4,55.3L143.8,55.3L143.8,58.1L140.4,58.1ZM143.8,60L143.8,72.3L140.4,72.3L140.4,60L143.8,60Z" style="fill:white;fill-rule:nonzero;"/>
            <path d="M145.4,56.3L148.8,56.3L148.8,60L151.3,60L151.3,62.3L148.8,62.3L148.8,68.4C148.8,69 148.9,69.4 149.1,69.5C149.3,69.7 149.7,69.8 150.2,69.8L151.2,69.8L151.2,72.4L147.7,72.4C147.2,72.4 146.8,72.2 146.5,72C146.1,71.8 145.9,71.5 145.7,71.1C145.5,70.7 145.4,70.2 145.4,69.6L145.4,56.3Z" style="fill:white;fill-rule:nonzero;"/>
            <path d="M157.5,76C156.8,76.4 155.9,76.6 154.8,76.6L152.8,76.6L152.8,73.8L154.8,73.8C155.2,73.8 155.6,73.6 155.8,73.3C156,73 156.1,72.7 156.1,72.3C156.1,71.9 156.1,71.8 156,71.5L151.6,60L155.2,60L158,68.4L160.7,60L164.2,60L159,73.9C158.7,74.9 158.2,75.6 157.5,76Z" style="fill:white;fill-rule:nonzero;"/>
        </g>
    </g>
    <g transform="matrix(1.029573,0,0,1.029573,0.060241,0)">
        <path d="M61.1,0.9L53.6,0.9C53.6,0.9 61.6,1.8 66.7,12.2L74.2,12.2C69.1,1.8 61.1,0.9 61.1,0.9Z" style="fill:white;fill-rule:nonzero;"/>
        <path d="M74.3,12.2C76.2,7.8 77.7,2.4 85.4,0.9L76.3,0.9C74.4,1.2 72.8,2 71.5,2.8C71.3,2.8 71.1,3.1 70.9,3.2C70.9,3.2 74.7,6.4 74.3,12.2Z" style="fill:white;fill-rule:nonzero;"/>
    </g>
    <g transform="matrix(1.029573,0,0,1.029573,0.060241,0)">
        <path d="M32.7,18.4L32.7,72.2C32.7,76.5 34,80 36.4,82.3C39.3,84.8 45.3,86.5 51.1,86.5C56.9,86.5 58.4,86 61.3,85C64,84.1 66.2,82.7 67.9,81L68.1,81L68.1,81.2C67.4,82.1 65.7,84.1 61.5,86.4C55.8,89.6 50.1,91 42.2,91C28.5,91 15.9,86.1 10,78.6C7.7,75.6 6.7,72.8 6.7,67L6.7,9.1C6.7,5.4 4.4,2.3 1.2,0.9L18.4,0.9C22.9,0.9 32.7,4.9 32.7,18.4Z" style="fill:white;fill-rule:nonzero;"/>
    </g>
</svg>
